<svg xmlns="http://www.w3.org/2000/svg" version="1.1" xmlns:xlink="http://www.w3.org/1999/xlink" viewBox="0 0 7.705984577046303 6.916709253759337"><g transform="matrix(0.8502129299136248,0,0,0.8502129299136248,1.0951452328432447,4.565821343887987)"><rect width="8.924542396280106" height="8.924542396280106" x="-1.2185578192338031" y="-5.76484691540282" fill="#ffffff"></rect><g transform="matrix(1,0,0,1,0,0)" clip-path="url(#SvgjsClipPath50259)"><g clip-path="url(#SvgjsClipPath5025486577b3f-a4f3-45da-933b-14e21601fc1c)"><path d=" M 2.3362185486576177 -2.187825820186096 L 3.2436579446518587 -3.095075182417262 L 4.150907306883026 -2.187635786423021 L 3.2434679108887847 -1.2803864241918554 Z" fill="#bab9b4" transform="matrix(1,0,0,1,0,0)" fill-rule="nonzero"></path></g><g clip-path="url(#SvgjsClipPath5025486577b3f-a4f3-45da-933b-14e21601fc1c)"><path d=" M 2.774040726989917 -3.542792976425605 L 1.419044659485692 -2.1877969089213805 L 2.7486186619335524 -0.8588584580999292 L 2.139760203833624 -0.25 L 2.1276847229318507 -0.26143992927536397 L 0.8101862013857635 -1.5789384508214521 L 0.7733242070540352 -1.6164359967795892 C 0.46953052963048 -1.919382272034599 0.3699607748263859 -2.17614512910388 0.4746149426417529 -2.3867245679874323 C 0.5295499571219432 -2.4933405811919997 0.6019438842631075 -2.5900090298968186 0.6887958407416221 -2.67272279987153 L 2.165182268889988 -4.151651434525534 Z" fill="#000000" transform="matrix(1,0,0,1,0,0)" fill-rule="evenodd"></path></g><g clip-path="url(#SvgjsClipPath5025486577b3f-a4f3-45da-933b-14e21601fc1c)"><path d=" M 3.713386030822583 -3.542792976425605 L 5.068382098326809 -2.1877969089213805 L 3.739443647505357 -0.8588584580999292 L 4.348302105605285 -0.25 L 4.360377586507058 -0.26143992927536397 L 5.677240556426736 -1.5789384508214521 L 5.714102550758465 -1.6164359967795892 C 6.01789622818202 -1.919382272034599 6.117465982986116 -2.17614512910388 6.012811815170748 -2.3867245679874323 C 5.958645265568122 -2.4931535938867673 5.8871191117458 -2.589810558511526 5.801173123576514 -2.672722799871532 L 4.322244488922512 -4.151651434525534 Z" fill="#de6d2e" transform="matrix(1,0,0,1,0,0)" fill-rule="evenodd"></path></g></g><g><path d=" M 0.132 1.2015 L 0.132 0.15149999999999997 L 0.36 0.15149999999999997 L 0.9105 0.9015 L 0.861 0.894 Q 0.8535 0.8445 0.849 0.7995 Q 0.8445 0.7545 0.84075 0.7110000000000001 Q 0.837 0.6675 0.83475 0.6225 Q 0.8325 0.5775 0.83175 0.525 Q 0.8310000000000001 0.47250000000000003 0.8310000000000001 0.41100000000000003 L 0.8310000000000001 0.15149999999999997 L 1.0785 0.15149999999999997 L 1.0785 1.2015 L 0.8475 1.2015 L 0.273 0.4275 L 0.34950000000000003 0.43799999999999994 Q 0.357 0.51 0.36225 0.56025 Q 0.3675 0.6105 0.37125 0.6495 Q 0.375 0.6885 0.3765 0.72 Q 0.378 0.7515000000000001 0.37875000000000003 0.78225 Q 0.3795 0.813 0.3795 0.8505 L 0.3795 1.2015 L 0.132 1.2015 M 1.69201025390625 1.2165 Q 1.56751025390625 1.2165 1.47076025390625 1.1625 Q 1.37401025390625 1.1085 1.31776025390625 1.0155 Q 1.26151025390625 0.9225 1.26151025390625 0.8025 Q 1.26151025390625 0.6825 1.31776025390625 0.5895 Q 1.37401025390625 0.49650000000000005 1.47076025390625 0.4425 Q 1.56751025390625 0.38849999999999996 1.69201025390625 0.38849999999999996 Q 1.8165102539062499 0.38849999999999996 1.91326025390625 0.4425 Q 2.01001025390625 0.49650000000000005 2.06551025390625 0.5895 Q 2.12101025390625 0.6825 2.12101025390625 0.8025 Q 2.12101025390625 0.9225 2.06551025390625 1.0155 Q 2.01001025390625 1.1085 1.91326025390625 1.1625 Q 1.8165102539062499 1.2165 1.69201025390625 1.2165 M 1.69201025390625 1.0095 Q 1.7460102539062499 1.0095 1.7880102539062501 0.9825 Q 1.83001025390625 0.9555 1.85401025390625 0.909 Q 1.87801025390625 0.8625 1.87651025390625 0.8025 Q 1.87801025390625 0.7424999999999999 1.85401025390625 0.69525 Q 1.83001025390625 0.648 1.7880102539062501 0.621 Q 1.7460102539062499 0.594 1.69201025390625 0.594 Q 1.63801025390625 0.594 1.59526025390625 0.621 Q 1.55251025390625 0.648 1.52851025390625 0.69525 Q 1.50451025390625 0.7424999999999999 1.50601025390625 0.8025 Q 1.50451025390625 0.8625 1.52851025390625 0.909 Q 1.55251025390625 0.9555 1.59526025390625 0.9825 Q 1.63801025390625 1.0095 1.69201025390625 1.0095 M 2.50047509765625 1.2015 L 2.16747509765625 0.405 L 2.43297509765625 0.405 L 2.63097509765625 1.0005 L 2.57247509765625 1.0065 L 2.77647509765625 0.405 L 3.03897509765625 0.405 L 2.68947509765625 1.2015 L 2.50047509765625 1.2015 M 3.26394580078125 1.5465 L 3.44544580078125 1.119 L 3.44844580078125 1.242 L 3.06444580078125 0.405 L 3.33594580078125 0.405 L 3.50394580078125 0.8055 Q 3.51744580078125 0.8355 3.52944580078125 0.87 Q 3.54144580078125 0.9045000000000001 3.54744580078125 0.9359999999999999 L 3.51444580078125 0.9555 Q 3.52344580078125 0.933 3.53469580078125 0.89925 Q 3.54594580078125 0.8654999999999999 3.55944580078125 0.8265 L 3.7064458007812497 0.405 L 3.97944580078125 0.405 L 3.64044580078125 1.2015 L 3.50244580078125 1.5465 L 3.26394580078125 1.5465 M 4.1594384765625 1.2015 L 4.1594384765625 0.20399999999999996 L 4.3994384765625 0.20399999999999996 L 4.3994384765625 1.2015 L 4.1594384765625 1.2015 M 4.0184384765625 0.615 L 4.0184384765625 0.405 L 4.5539384765625 0.405 L 4.5539384765625 0.615 L 4.0184384765625 0.615 M 4.690453857421875 1.2015 L 4.690453857421875 0.405 L 4.918453857421875 0.405 L 4.928953857421875 0.6645 L 4.883953857421875 0.615 Q 4.901953857421875 0.5505 4.943203857421875 0.49949999999999994 Q 4.984453857421875 0.4485 5.039953857421875 0.4185 Q 5.095453857421875 0.38849999999999996 5.1584538574218755 0.38849999999999996 Q 5.185453857421875 0.38849999999999996 5.208703857421875 0.393 Q 5.231953857421875 0.39749999999999996 5.251453857421875 0.40349999999999997 L 5.185453857421875 0.669 Q 5.168953857421875 0.6585 5.141203857421875 0.65175 Q 5.113453857421875 0.645 5.083453857421875 0.645 Q 5.050453857421875 0.645 5.021953857421875 0.65625 Q 4.993453857421875 0.6675 4.973953857421875 0.6885 Q 4.954453857421875 0.7095 4.943203857421875 0.738 Q 4.931953857421875 0.7665 4.931953857421875 0.8025 L 4.931953857421875 1.2015 L 4.690453857421875 1.2015 M 5.3864794921875 1.2015 L 5.3864794921875 0.405 L 5.6264794921875 0.405 L 5.6264794921875 1.2015 L 5.3864794921875 1.2015 M 5.5064794921875 0.24749999999999994 Q 5.4389794921875 0.24749999999999994 5.4007294921875 0.21524999999999994 Q 5.3624794921875 0.18300000000000005 5.3624794921875 0.123 Q 5.3624794921875 0.06899999999999995 5.4014794921875 0.034499999999999975 Q 5.4404794921875 0 5.5064794921875 0 Q 5.5739794921875 0 5.6114794921875 0.03224999999999989 Q 5.6489794921875 0.0645 5.6489794921875 0.123 Q 5.6489794921875 0.17849999999999988 5.6107294921875 0.21299999999999997 Q 5.5724794921875 0.24749999999999994 5.5064794921875 0.24749999999999994 M 6.11993408203125 1.2165 Q 6.00293408203125 1.2165 5.91368408203125 1.179 Q 5.82443408203125 1.1415 5.77193408203125 1.0785 L 5.91743408203125 0.9525 Q 5.96393408203125 0.999 6.02243408203125 1.02075 Q 6.08093408203125 1.0425 6.13343408203125 1.0425 Q 6.15443408203125 1.0425 6.17093408203125 1.038 Q 6.18743408203125 1.0335 6.19868408203125 1.02525 Q 6.20993408203125 1.017 6.21593408203125 1.00575 Q 6.22193408203125 0.9944999999999999 6.22193408203125 0.9795 Q 6.22193408203125 0.9495 6.19493408203125 0.933 Q 6.18143408203125 0.9255 6.14993408203125 0.915 Q 6.11843408203125 0.9045000000000001 6.06893408203125 0.891 Q 5.99843408203125 0.873 5.94668408203125 0.84825 Q 5.89493408203125 0.8235 5.86193408203125 0.7905 Q 5.83193408203125 0.759 5.81543408203125 0.72075 Q 5.79893408203125 0.6825 5.79893408203125 0.6345 Q 5.79893408203125 0.579 5.82518408203125 0.534 Q 5.85143408203125 0.489 5.89568408203125 0.45599999999999996 Q 5.93993408203125 0.42300000000000004 5.99768408203125 0.40574999999999994 Q 6.05543408203125 0.38849999999999996 6.11693408203125 0.38849999999999996 Q 6.18293408203125 0.38849999999999996 6.24293408203125 0.40349999999999997 Q 6.30293408203125 0.4185 6.35468408203125 0.4455 Q 6.40643408203125 0.47250000000000003 6.44693408203125 0.51 L 6.3209340820312505 0.651 Q 6.29393408203125 0.6255 6.26018408203125 0.60525 Q 6.22643408203125 0.585 6.19043408203125 0.573 Q 6.15443408203125 0.561 6.12443408203125 0.561 Q 6.10193408203125 0.561 6.08468408203125 0.56475 Q 6.06743408203125 0.5685 6.05543408203125 0.57675 Q 6.04343408203125 0.585 6.03743408203125 0.59625 Q 6.03143408203125 0.6075 6.03143408203125 0.6225 Q 6.03143408203125 0.6375 6.03968408203125 0.651 Q 6.04793408203125 0.6645 6.06293408203125 0.6735 Q 6.07793408203125 0.6825 6.11093408203125 0.69375 Q 6.14393408203125 0.7050000000000001 6.20093408203125 0.7215 Q 6.27143408203125 0.741 6.32243408203125 0.765 Q 6.37343408203125 0.7889999999999999 6.40343408203125 0.8220000000000001 Q 6.42743408203125 0.8475 6.43943408203125 0.8812500000000001 Q 6.45143408203125 0.915 6.45143408203125 0.954 Q 6.45143408203125 1.0305 6.40868408203125 1.08975 Q 6.36593408203125 1.149 6.29093408203125 1.18275 Q 6.21593408203125 1.2165 6.11993408203125 1.2165" fill="#0e1425" fill-rule="nonzero"></path></g><g></g></g><defs><clipPath id="SvgjsClipPath50259"><path d=" M 0.43457519017797885 -4.151651434525534 h 5.618276377456542 v 3.901651434525534 h -5.618276377456542 Z"></path></clipPath><clipPath id="SvgjsClipPath5025486577b3f-a4f3-45da-933b-14e21601fc1c"><path d=" M 0.43457519017797885 -4.151651434525534 L 6.052851567634521 -4.151651434525534 L 6.052851567634521 -0.25 L 0.43457519017797885 -0.25 Z"></path></clipPath></defs></svg>